# xmcd
#
# Track frame offsets:
#	150
#	14740
#	32905
#	47839
#	65360
#	75990
#	91750
#	103695
#	115320
#	127492
#	143032
#	158795
#
# Disc length: 2276 seconds
#
# Revision: 1
# Processed by: cddbd v1.5.1PL0 Copyright (c) Steve Scherf et al.
# Submitted via: dBpowerAMP V4.0
#
DISCID=a108e20c
DTITLE=Nappy Brown and Kip Anderson - Best Of Both Worlds
DYEAR=1997
DGENRE=Blues
TTITLE0=Rocket 88
TTITLE1=Drinkin' Wine Spo-Dee-O-Dee
TTITLE2=It Should've Been Me
TTITLE3=The Right Time
TTITLE4=Down In The Bottom
TTITLE5=Knife and Fork
TTITLE6=Big Foot May
TTITLE7=Don'T Be Angry
TTITLE8=When You're Ugly Like Me
TTITLE9=Who Threw The Whiskey In The Well
TTITLE10=Hit The Road Jack
TTITLE11=You Never Had It So Good
EXTD=
EXTT0=
EXTT1=
EXTT2=
EXTT3=
EXTT4=
EXTT5=
EXTT6=
EXTT7=
EXTT8=
EXTT9=
EXTT10=
EXTT11=
PLAYORDER=
